<svg preserveAspectRatio="none" width="100%" height="100%" overflow="visible" style="display: block;" viewBox="0 0 23.953 19.466" fill="none" xmlns="http://www.w3.org/2000/svg">
<g id="7935ec95c421cee6d86eb22ecd12f847">
<path id="Vector" d="M21.5009 4.848C21.5104 5.05898 21.5152 5.27095 21.5152 5.48386C21.5152 11.978 16.5717 19.466 7.53356 19.466C4.75814 19.466 2.17472 18.6524 0 17.258C0.384937 17.3036 0.775594 17.3269 1.17244 17.3269C3.47498 17.3269 5.59359 16.5413 7.27598 15.2229C5.12503 15.1835 3.31055 13.7626 2.68514 11.8102C2.98552 11.8678 3.29302 11.8987 3.60998 11.8987C4.05764 11.8987 4.49198 11.8383 4.90453 11.7262C2.65664 11.2746 0.962344 9.28861 0.962344 6.90764C0.962344 6.88673 0.962344 6.8663 0.962859 6.84586C1.62534 7.21369 2.38289 7.4347 3.18886 7.46034C1.87008 6.57928 1.00275 5.07511 1.00275 3.36994C1.00275 2.46937 1.24462 1.62534 1.66805 0.899625C4.09181 3.87272 7.71216 5.82881 11.7964 6.03412C11.7128 5.67436 11.669 5.29941 11.669 4.914C11.669 2.20036 13.8694 0 16.583 0C17.9974 0 19.2738 0.596906 20.1701 1.55166C21.2898 1.33162 22.341 0.922453 23.2905 0.35925C22.9237 1.50698 22.1452 2.4698 21.1301 3.07809C22.1243 2.95927 23.072 2.69508 23.953 2.30442C23.2944 3.28964 22.4609 4.15505 21.5009 4.848Z" fill="var(--fill-0, #171717)"/>
</g>
</svg>
